<svg display="block"role="presentation"viewBox="0 0 169 40"xmlns="http://www.w3.org/2000/svg"><g d="M 10.015 2.5 L 10.015 40 L 0 40 L 0 2.5 Z M 15.023 2.5 L 36.304 2.5 C 43.218 2.5 48.823 8.096 48.823 15 C 48.823 21.904 43.218 27.5 36.304 27.5 L 25.037 27.5 L 25.037 40 L 15.023 40 Z M 25.037 17.5 L 36.304 17.5 C 37.687 17.5 38.808 16.381 38.808 15 C 38.808 13.619 37.687 12.5 36.304 12.5 L 25.037 12.5 Z M 86.378 2.5 L 86.378 21.875 C 86.378 26.362 90.021 30 94.515 30 C 99.009 30 102.652 26.362 102.652 21.875 L 102.652 2.5 L 112.667 2.5 L 112.667 21.875 C 112.667 31.885 104.54 40 94.515 40 C 84.49 40 76.363 31.885 76.363 21.875 L 76.363 2.5 Z M 52.578 20 C 52.578 10.335 60.425 2.5 70.104 2.5 L 72.608 2.5 L 72.608 12.5 L 70.104 12.5 C 65.956 12.5 62.593 15.858 62.593 20 L 62.593 21.25 C 62.593 31.605 54.186 40 43.815 40 L 42.563 40 L 42.563 30 L 43.815 30 C 48.655 30 52.578 26.082 52.578 21.25 Z M 169 3.75 C 169 5.821 167.319 7.5 165.244 7.5 C 163.17 7.5 161.489 5.821 161.489 3.75 C 161.489 1.679 163.17 0 165.244 0 C 167.319 0 169 1.679 169 3.75 Z M 123.42 40 L 128.199 20.018 L 131.752 32.039 C 133.87 39.209 144.041 39.209 146.16 32.039 L 149.712 20.018 L 154.491 40 L 164.787 40 L 157.273 8.58 C 155.486 1.107 144.941 0.831 142.763 8.199 L 138.956 21.083 L 135.148 8.199 C 132.971 0.831 122.425 1.107 120.638 8.579 L 113.124 40 Z"fill="transparent"height="40px"id="A3be247jM"width="168.99999841308593px"><path d="M 10.015 0 L 10.015 37.5 L 0 37.5 L 0 0 Z"fill="white"height="37.5px"id="FeqAflX4A"transform="translate(0 2.5)"width="10.0148px"/><path d="M 0 0 L 21.282 0 C 28.195 0 33.8 5.596 33.8 12.5 C 33.8 19.404 28.195 25 21.282 25 L 10.015 25 L 10.015 37.5 L 0 37.5 Z M 10.015 15 L 21.282 15 C 22.664 15 23.785 13.881 23.785 12.5 C 23.785 11.119 22.664 10 21.282 10 L 10.015 10 Z"fill="white"height="37.5px"id="rNCSGXzLM"transform="translate(15.023 2.5)"width="33.8px"/><path d="M 10.015 0 L 10.015 19.375 C 10.015 23.862 13.658 27.5 18.152 27.5 C 22.646 27.5 26.289 23.862 26.289 19.375 L 26.289 0 L 36.304 0 L 36.304 19.375 C 36.304 29.385 28.177 37.5 18.152 37.5 C 8.127 37.5 0 29.385 0 19.375 L 0 0 Z"fill="white"height="37.5px"id="Kn0ienxN_"transform="translate(76.363 2.5)"width="36.303700000000006px"/><path d="M 10.015 17.5 C 10.015 7.835 17.861 0 27.541 0 L 30.044 0 L 30.044 10 L 27.541 10 C 23.392 10 20.03 13.358 20.03 17.5 L 20.03 18.75 C 20.03 29.105 11.623 37.5 1.252 37.5 L 0 37.5 L 0 27.5 L 1.252 27.5 C 6.092 27.5 10.015 23.582 10.015 18.75 Z"fill="white"height="37.5px"id="SghZLqTmG"transform="translate(42.563 2.5)"width="30.044400000000003px"/><path d="M 7.511 3.75 C 7.511 5.821 5.83 7.5 3.755 7.5 C 1.681 7.5 0 5.821 0 3.75 C 0 1.679 1.681 0 3.755 0 C 5.83 0 7.511 1.679 7.511 3.75 Z"fill="white"height="7.5px"id="zX6r3FsmI"transform="translate(161.489 0)"width="7.510999999999996px"/><path d="M 10.296 37.179 L 15.075 17.197 L 18.628 29.218 C 20.746 36.388 30.917 36.388 33.036 29.218 L 36.588 17.197 L 41.367 37.179 L 51.663 37.179 L 44.149 5.758 C 42.362 -1.714 31.817 -1.991 29.639 5.378 L 25.832 18.262 L 22.024 5.378 C 19.847 -1.991 9.301 -1.714 7.514 5.758 L 0 37.179 Z"fill="white"height="37.17858650918973px"id="fSvYIM02F"transform="translate(113.124 2.821)"width="51.66300000000001px"/></g></svg>