<svg viewBox="0 0 72 72" xmlns="http://www.w3.org/2000/svg">
  <rect width="72" height="72" fill="#1c1c1c"/>
  <g transform="translate(0 16)" fill="#e3d8c5">
    <path d="M 29.838 5.097 C 29.919 5.171 29.976 5.267 30 5.373 C 30.025 5.479 30.016 5.59 29.975 5.691 L 23.225 28.27 C 23.14 28.516 22.966 28.722 22.738 28.848 C 22.552 28.972 22.336 29.045 22.113 29.061 L 0.659 29.061 C 0.476 29.052 0.302 28.976 0.171 28.848 C 0.093 28.776 0.039 28.682 0.014 28.58 C -0.01 28.477 -0.003 28.369 0.034 28.27 L 6.799 5.691 C 6.877 5.441 7.046 5.23 7.272 5.097 C 7.461 4.982 7.675 4.914 7.897 4.9 L 29.351 4.9 C 29.532 4.901 29.707 4.972 29.838 5.097 Z M 18.639 23.72 L 22.677 10.24 L 11.371 10.24 L 7.348 23.72 Z M 50.317 5.326 C 50.39 5.411 50.482 5.478 50.585 5.523 C 50.688 5.568 50.799 5.589 50.911 5.584 L 53.7 5.584 C 53.806 5.585 53.911 5.559 54.004 5.509 C 54.097 5.458 54.176 5.385 54.233 5.295 C 54.283 5.225 54.318 5.146 54.336 5.063 C 54.354 4.979 54.355 4.893 54.34 4.808 L 53.791 0.792 C 53.739 0.606 53.645 0.434 53.517 0.29 C 53.444 0.205 53.352 0.137 53.249 0.093 C 53.146 0.048 53.035 0.027 52.923 0.031 L 50.134 0.031 C 50.028 0.03 49.923 0.056 49.83 0.107 C 49.737 0.157 49.658 0.231 49.601 0.32 C 49.494 0.533 49.449 0.67 49.494 0.792 L 50.058 4.808 C 50.087 5.004 50.178 5.185 50.317 5.326 Z M 59.17 0.761 C 59.118 0.575 59.024 0.404 58.896 0.259 C 58.826 0.175 58.737 0.107 58.636 0.062 C 58.536 0.017 58.427 -0.004 58.317 0.001 L 55.513 0.001 C 55.409 -0.002 55.305 0.023 55.214 0.074 C 55.123 0.125 55.047 0.199 54.995 0.29 C 54.894 0.425 54.85 0.594 54.873 0.761 L 55.437 4.778 C 55.472 4.971 55.562 5.151 55.696 5.295 C 55.77 5.379 55.862 5.445 55.965 5.489 C 56.067 5.534 56.178 5.556 56.29 5.554 L 59.094 5.554 C 59.198 5.555 59.301 5.529 59.391 5.479 C 59.482 5.428 59.558 5.354 59.612 5.265 C 59.665 5.197 59.702 5.118 59.72 5.033 C 59.739 4.949 59.738 4.862 59.718 4.778 Z M 47.864 6.847 L 47.59 4.869 L 34.074 4.869 C 33.862 4.881 33.657 4.949 33.48 5.067 C 33.368 5.128 33.27 5.213 33.194 5.315 C 33.117 5.418 33.064 5.535 33.038 5.66 L 31.91 9.434 C 31.865 9.528 31.85 9.634 31.866 9.737 C 31.883 9.84 31.93 9.936 32.002 10.012 C 32.13 10.132 32.298 10.203 32.474 10.21 L 48.9 10.21 L 44.862 23.69 L 28.482 23.69 C 28.271 23.695 28.065 23.758 27.888 23.872 C 27.672 24.009 27.515 24.22 27.446 24.466 L 26.303 28.239 C 26.266 28.336 26.256 28.441 26.275 28.543 C 26.294 28.645 26.34 28.74 26.41 28.817 C 26.534 28.946 26.703 29.022 26.882 29.03 L 48.397 29.03 C 48.62 29.011 48.834 28.938 49.022 28.817 C 49.247 28.691 49.416 28.485 49.494 28.239 L 55.681 7.608 L 48.717 7.608 C 48.607 7.61 48.497 7.59 48.395 7.548 C 48.293 7.506 48.2 7.443 48.123 7.364 C 47.997 7.226 47.908 7.059 47.864 6.878 Z" transform="translate(1.519 1.4)"/>
  </g>
</svg>
